<?xml version="1.0" encoding="UTF-8"?>
<!DOCTYPE svg PUBLIC "-//W3C//DTD SVG 1.1//EN" "http://www.w3.org/Graphics/SVG/1.1/DTD/svg11.dtd">
<svg xmlns="http://www.w3.org/2000/svg" version="1.1" width="4060px" height="400px" style="shape-rendering:geometricPrecision; text-rendering:geometricPrecision; image-rendering:optimizeQuality; fill-rule:evenodd; clip-rule:evenodd" xmlns:xlink="http://www.w3.org/1999/xlink">
<g><path style="opacity:1" fill="#15b0f0" d="M 66.5,-0.5 C 1397.5,-0.5 2728.5,-0.5 4059.5,-0.5C 4059.5,-0.166667 4059.5,0.166667 4059.5,0.5C 4042.13,0.16161 4026.8,0.494944 4013.5,1.5C 4013.37,2.37644 4013.7,3.04311 4014.5,3.5C 4018.17,4.66997 4021.51,6.33663 4024.5,8.5C 4016.73,5.63614 4008.73,3.46947 4000.5,2C 2685.17,1.66667 1369.83,1.33333 54.5,1C 58.6877,0.823821 62.6877,0.323821 66.5,-0.5 Z"/></g>
<g><path style="opacity:1" fill="#03b0f0" d="M 52.5,-0.5 C 57.1667,-0.5 61.8333,-0.5 66.5,-0.5C 62.6877,0.323821 58.6877,0.823821 54.5,1C 1369.83,1.33333 2685.17,1.66667 4000.5,2C 4008.73,3.46947 4016.73,5.63614 4024.5,8.5C 4030.69,11.7623 4036.36,15.7623 4041.5,20.5C 4042.08,22.7488 4043.41,24.4154 4045.5,25.5C 4045.74,27.4044 4046.74,28.7377 4048.5,29.5C 4049.34,29.8417 4049.67,30.5084 4049.5,31.5C 4049.43,33.0269 4050.09,34.0269 4051.5,34.5C 4052.67,35.5137 4053.34,36.847 4053.5,38.5C 4053.63,40.2161 4053.96,41.8828 4054.5,43.5C 4053.9,43.7352 4053.57,44.2352 4053.5,45C 4054.41,48.1451 4055.24,51.3117 4056,54.5C 4056.67,150.833 4056.67,247.167 4056,343.5C 4055.56,345.847 4055.06,348.181 4054.5,350.5C 4054.54,351.416 4054.88,352.083 4055.5,352.5C 4055.5,353.167 4055.5,353.833 4055.5,354.5C 4055.6,356.553 4054.93,358.22 4053.5,359.5C 4051.99,361.181 4050.99,363.181 4050.5,365.5C 4045.56,376.111 4037.89,384.111 4027.5,389.5C 4023.43,390.524 4020.1,392.524 4017.5,395.5C 4013.34,396.664 4009.34,397.997 4005.5,399.5C 2687.83,399.5 1370.17,399.5 52.5,399.5C 49.659,398.331 46.659,397.331 43.5,396.5C 43.6309,395.624 43.2975,394.957 42.5,394.5C 34.292,390.605 26.6253,385.938 19.5,380.5C 15.3717,377.71 12.3717,374.043 10.5,369.5C 10.573,367.973 9.90632,366.973 8.5,366.5C 7.09368,366.027 6.42702,365.027 6.5,363.5C 5.27773,359.332 3.94439,355.165 2.5,351C 2.16389,349.97 1.49722,349.47 0.5,349.5C 0.737305,348.209 0.403972,347.209 -0.5,346.5C -0.5,252.833 -0.5,159.167 -0.5,65.5C 0.356952,61.3401 1.02362,57.0068 1.5,52.5C 1.48046,51.2739 1.14713,50.2739 0.5,49.5C 0.5,49.1667 0.5,48.8333 0.5,48.5C 2.95578,46.1823 4.28911,43.1823 4.5,39.5C 6.92426,32.9735 10.5909,27.3068 15.5,22.5C 23.1156,14.3553 32.1156,8.18863 42.5,4C 45.1013,3.07965 47.7679,2.41299 50.5,2C 51.756,1.58309 52.4226,0.749754 52.5,-0.5 Z"/></g>
<g><path style="opacity:0.553" fill="#6accf5" d="M 4013.5,1.5 C 4024.57,5.36064 4033.9,11.694 4041.5,20.5C 4036.36,15.7623 4030.69,11.7623 4024.5,8.5C 4021.51,6.33663 4018.17,4.66997 4014.5,3.5C 4013.7,3.04311 4013.37,2.37644 4013.5,1.5 Z"/></g>
<g><path style="opacity:0.506" fill="#9fdbf8" d="M -0.5,0.5 C -0.5,0.166667 -0.5,-0.166667 -0.5,-0.5C 17.1667,-0.5 34.8333,-0.5 52.5,-0.5C 52.4226,0.749754 51.756,1.58309 50.5,2C 47.7679,2.41299 45.1013,3.07965 42.5,4C 32.1156,8.18863 23.1156,14.3553 15.5,22.5C 23.7433,11.3614 34.7433,4.19471 48.5,1C 32.1701,0.500069 15.8367,0.333403 -0.5,0.5 Z"/></g>
<g><path style="opacity:0.004" fill="#7ad2f6" d="M 4041.5,20.5 C 4043.59,21.5846 4044.92,23.2512 4045.5,25.5C 4043.41,24.4154 4042.08,22.7488 4041.5,20.5 Z"/></g>
<g><path style="opacity:0.561" fill="#94dbf8" d="M 4045.5,25.5 C 4047.26,26.2623 4048.26,27.5956 4048.5,29.5C 4046.74,28.7377 4045.74,27.4044 4045.5,25.5 Z"/></g>
<g><path style="opacity:1" fill="#fdfefe" d="M 426.5,27.5 C 437.476,26.1133 447.809,27.9466 457.5,33C 472.344,48.2662 472.01,63.2662 456.5,78C 442.584,85.6076 428.917,85.2743 415.5,77C 405.625,68.0944 402.792,57.261 407,44.5C 411.029,35.9162 417.529,30.2495 426.5,27.5 Z"/></g>
<g><path style="opacity:1" fill="#fdfefe" d="M 528.5,27.5 C 543.423,24.4203 555.923,28.4203 566,39.5C 573.861,54.4404 571.361,67.2737 558.5,78C 545.981,84.8577 533.314,85.191 520.5,79C 508.7,70.2661 504.866,58.7661 509,44.5C 513.402,36.389 519.902,30.7223 528.5,27.5 Z"/></g>
<g><path style="opacity:1" fill="#fdfefe" d="M 1250.5,27.5 C 1258.25,27.1039 1265.92,27.6039 1273.5,29C 1292.37,38.4571 1296.87,52.6238 1287,71.5C 1276.41,82.9149 1263.58,86.4149 1248.5,82C 1230.71,73.6438 1225.21,60.1438 1232,41.5C 1236.53,34.5054 1242.69,29.8387 1250.5,27.5 Z"/></g>
<g><path style="opacity:0.196" fill="#9adcf7" d="M 4049.5,31.5 C 4050.91,31.9731 4051.57,32.9731 4051.5,34.5C 4050.09,34.0269 4049.43,33.0269 4049.5,31.5 Z"/></g>
<g><path style="opacity:1" fill="#fefefe" d="M 2261.5,36.5 C 2289.46,33.323 2314.8,39.823 2337.5,56C 2361.42,78.2254 2366.25,104.059 2352,133.5C 2343.25,146.588 2331.75,156.421 2317.5,163C 2358.3,178.5 2374.14,207.666 2365,250.5C 2356.36,274.468 2339.86,290.301 2315.5,298C 2308,300.433 2300.33,302.1 2292.5,303C 2261.67,307.562 2233.67,300.895 2208.5,283C 2187.93,264.618 2180.09,241.785 2185,214.5C 2192.28,189.217 2208.45,172.384 2233.5,164C 2199.68,146.527 2187.51,119.36 2197,82.5C 2206.04,63.1261 2220.54,49.6261 2240.5,42C 2247.51,39.666 2254.51,37.8326 2261.5,36.5 Z"/></g>
<g><path style="opacity:1" fill="#fdfefe" d="M 2590.5,109.5 C 2603.54,108.853 2616.21,109.52 2628.5,111.5C 2624.23,146.719 2621.73,182.052 2621,217.5C 2623.72,236.11 2633.22,240.61 2649.5,231C 2657.11,223.277 2662.28,214.111 2665,203.5C 2669.8,183.724 2670.8,163.724 2668,143.5C 2660.13,108.63 2639.29,85.4638 2605.5,74C 2552.32,58.9086 2507.82,72.0753 2472,113.5C 2446.69,148.235 2439.36,186.569 2450,228.5C 2459.03,259.738 2478.53,281.571 2508.5,294C 2530.54,301.588 2553.21,304.255 2576.5,302C 2596.63,300.3 2615.97,295.467 2634.5,287.5C 2635.82,298.728 2635.82,309.895 2634.5,321C 2601.39,332.193 2567.39,336.193 2532.5,333C 2488.82,328.256 2453.99,308.423 2428,273.5C 2410.4,244.668 2403.06,213.335 2406,179.5C 2412.57,114.614 2446.07,70.1139 2506.5,46C 2547.37,34.2278 2588.04,34.8945 2628.5,48C 2686.02,71.8992 2712.86,115.066 2709,177.5C 2706.97,210.412 2692.8,236.578 2666.5,256C 2650.7,265.2 2633.7,268.866 2615.5,267C 2596.56,262.562 2585.89,250.729 2583.5,231.5C 2571.84,261.664 2550.18,272.831 2518.5,265C 2499.24,256.698 2487.41,242.198 2483,221.5C 2477.24,191.152 2482.24,162.819 2498,136.5C 2513.25,114.127 2534.41,103.96 2561.5,106C 2574.82,107.658 2583.66,114.825 2588,127.5C 2588.52,121.311 2589.35,115.311 2590.5,109.5 Z"/></g>
<g><path style="opacity:1" fill="#fefefe" d="M 2067.5,299.5 C 2048.14,300.154 2029.14,299.487 2010.5,297.5C 2020.2,242.566 2038.37,190.566 2065,141.5C 2074.95,122.425 2085.78,103.925 2097.5,86C 2056.5,85.5 2015.5,85.3333 1974.5,85.5C 1974.5,70.5 1974.5,55.5 1974.5,40.5C 2034.5,40.5 2094.5,40.5 2154.5,40.5C 2154.67,52.1714 2154.5,63.8381 2154,75.5C 2131.68,114.146 2112.01,154.146 2095,195.5C 2082.68,229.465 2073.51,264.131 2067.5,299.5 Z"/></g>
<g><path style="opacity:0.031" fill="#c1eafb" d="M 4053.5,38.5 C 4054.93,39.7804 4055.6,41.4471 4055.5,43.5C 4055.17,43.5 4054.83,43.5 4054.5,43.5C 4053.96,41.8828 4053.63,40.2161 4053.5,38.5 Z"/></g>
<g><path style="opacity:0.329" fill="#a5e1f9" d="M 4.5,39.5 C 4.28911,43.1823 2.95578,46.1823 0.5,48.5C 1.46175,45.2609 2.79508,42.2609 4.5,39.5 Z"/></g>
<g><path style="opacity:0.455" fill="#97dbf8" d="M 4055.5,43.5 C 4056.99,47.1165 4058.32,50.7831 4059.5,54.5C 4059.5,55.5 4059.5,56.5 4059.5,57.5C 4058.31,57.0296 4057.64,56.0296 4057.5,54.5C 4056.41,50.9032 4055.74,47.2366 4055.5,43.5 Z"/></g>
<g><path style="opacity:0.722" fill="#54c4f3" d="M 0.5,49.5 C 1.14713,50.2739 1.48046,51.2739 1.5,52.5C 1.02362,57.0068 0.356952,61.3401 -0.5,65.5C -0.5,61.1667 -0.5,56.8333 -0.5,52.5C 0.403972,51.791 0.737305,50.791 0.5,49.5 Z"/></g>
<g><path style="opacity:0.958" fill="#01acef" d="M 4054.5,43.5 C 4054.83,43.5 4055.17,43.5 4055.5,43.5C 4055.74,47.2366 4056.41,50.9032 4057.5,54.5C 4057.64,56.0296 4058.31,57.0296 4059.5,57.5C 4059.5,152.167 4059.5,246.833 4059.5,341.5C 4058.35,341.791 4057.68,342.624 4057.5,344C 4056.91,346.87 4056.24,349.703 4055.5,352.5C 4054.88,352.083 4054.54,351.416 4054.5,350.5C 4055.06,348.181 4055.56,345.847 4056,343.5C 4056.67,247.167 4056.67,150.833 4056,54.5C 4055.24,51.3117 4054.41,48.1451 4053.5,45C 4053.57,44.2352 4053.9,43.7352 4054.5,43.5 Z"/></g>
<g><path style="opacity:1" fill="#0ab0f0" d="M 2270.5,75.5 C 2289.49,74.6617 2301.65,83.3283 2307,101.5C 2310.55,121.241 2303.38,135.407 2285.5,144C 2264.93,147.09 2252.1,138.59 2247,118.5C 2243.63,97.7769 2251.46,83.4435 2270.5,75.5 Z"/></g>
<g><path style="opacity:1" fill="#9fd8f7" d="M 2590.5,109.5 C 2603.32,108.505 2616.32,108.171 2629.5,108.5C 2629.74,109.791 2629.4,110.791 2628.5,111.5C 2616.21,109.52 2603.54,108.853 2590.5,109.5 Z"/></g>
<g><path style="opacity:1" fill="#fdfefe" d="M 765.5,299.5 C 748.5,299.5 731.5,299.5 714.5,299.5C 714.832,290.475 714.498,281.475 713.5,272.5C 712.893,272.624 712.56,272.957 712.5,273.5C 701.918,291.97 685.918,302.136 664.5,304C 636.941,307.307 616.775,296.807 604,272.5C 591.534,227.256 608.034,199.089 653.5,188C 673.432,185.524 693.266,182.69 713,179.5C 714.138,161.297 705.638,150.797 687.5,148C 662.354,146.87 639.354,153.37 618.5,167.5C 617.167,153.5 617.167,139.5 618.5,125.5C 649.52,111.378 681.854,107.212 715.5,113C 743.169,120.338 759.335,138.172 764,166.5C 765.451,210.809 765.951,255.142 765.5,299.5 Z"/></g>
<g><path style="opacity:1" fill="#fefefe" d="M 911.5,110.5 C 956.218,105.402 981.384,125.069 987,169.5C 987.5,213.165 987.667,256.832 987.5,300.5C 969.5,300.5 951.5,300.5 933.5,300.5C 933.965,259.799 933.465,219.132 932,178.5C 925.929,155.437 911.429,147.271 888.5,154C 877.142,159.879 869.975,169.046 867,181.5C 865.536,221.132 865.036,260.799 865.5,300.5C 847.5,300.5 829.5,300.5 811.5,300.5C 811.5,238.5 811.5,176.5 811.5,114.5C 829.5,114.5 847.5,114.5 865.5,114.5C 865.334,124.172 865.5,133.839 866,143.5C 876.573,126.084 891.74,115.084 911.5,110.5 Z"/></g>
<g><path style="opacity:1" fill="#fdfefe" d="M 1341.5,166.5 C 1340.5,153.01 1340.17,139.344 1340.5,125.5C 1372.19,110.785 1405.19,106.951 1439.5,114C 1463.17,120.503 1478.01,135.67 1484,159.5C 1485.71,167.072 1486.71,174.739 1487,182.5C 1487.67,221.5 1487.67,260.5 1487,299.5C 1469.91,300.492 1452.74,300.825 1435.5,300.5C 1435.67,291.494 1435.5,282.494 1435,273.5C 1419.29,297.264 1397.13,307.43 1368.5,304C 1337.73,298.31 1322.07,279.81 1321.5,248.5C 1321.85,219.325 1335.85,200.158 1363.5,191C 1387.32,185.975 1411.32,182.142 1435.5,179.5C 1436.15,161.312 1427.48,150.812 1409.5,148C 1384.65,146.378 1361.98,152.545 1341.5,166.5 Z"/></g>
<g><path style="opacity:1" fill="#fefefe" d="M 1533.5,299.5 C 1533.5,238.167 1533.5,176.833 1533.5,115.5C 1551.17,115.5 1568.83,115.5 1586.5,115.5C 1586.17,125.19 1586.5,134.856 1587.5,144.5C 1588.11,144.376 1588.44,144.043 1588.5,143.5C 1604.78,117.212 1628.45,106.379 1659.5,111C 1680.81,113.977 1695.31,125.477 1703,145.5C 1705.77,152.929 1707.44,160.596 1708,168.5C 1708.5,212.499 1708.67,256.499 1708.5,300.5C 1690.83,300.5 1673.17,300.5 1655.5,300.5C 1655.67,263.165 1655.5,225.832 1655,188.5C 1653.41,159.551 1638.58,148.051 1610.5,154C 1599.73,159.442 1592.56,167.942 1589,179.5C 1587.53,219.794 1587.03,260.127 1587.5,300.5C 1569.33,300.83 1551.33,300.497 1533.5,299.5 Z"/></g>
<g><path style="opacity:1" fill="#fefefe" d="M 1878.5,135.5 C 1878.56,136.043 1878.89,136.376 1879.5,136.5C 1880.5,129.197 1880.83,121.863 1880.5,114.5C 1898.17,114.5 1915.83,114.5 1933.5,114.5C 1933.67,176.168 1933.5,237.834 1933,299.5C 1927.8,341.102 1905.3,368.268 1865.5,381C 1834.5,388.295 1803.5,388.295 1772.5,381C 1768.79,379.598 1765.13,378.098 1761.5,376.5C 1760.33,360.844 1760.17,345.177 1761,329.5C 1785.27,344.444 1811.44,349.278 1839.5,344C 1864.95,336.278 1878.28,319.112 1879.5,292.5C 1880.82,285.989 1880.82,279.322 1879.5,272.5C 1878.89,272.624 1878.56,272.957 1878.5,273.5C 1867.15,292.022 1850.49,302.189 1828.5,304C 1793.53,306.434 1768.36,291.934 1753,260.5C 1744.91,238.53 1742.24,215.863 1745,192.5C 1747.5,166.962 1758,145.462 1776.5,128C 1796.85,111.878 1819.85,106.544 1845.5,112C 1859.45,115.792 1870.45,123.625 1878.5,135.5 Z"/></g>
<g><path style="opacity:1" fill="#fefefe" d="M 2817.5,110.5 C 2831.16,109.411 2844.49,110.911 2857.5,115C 2867.84,119.676 2876.01,126.842 2882,136.5C 2882.5,129.174 2882.67,121.841 2882.5,114.5C 2900.5,114.5 2918.5,114.5 2936.5,114.5C 2936.5,204.833 2936.5,295.167 2936.5,385.5C 2918.5,385.5 2900.5,385.5 2882.5,385.5C 2882.67,348.165 2882.5,310.832 2882,273.5C 2870.61,292.453 2853.78,302.62 2831.5,304C 2787.3,305.478 2760.14,284.644 2750,241.5C 2747.55,224.923 2746.88,208.256 2748,191.5C 2751.54,159.214 2767.04,134.714 2794.5,118C 2801.99,114.558 2809.66,112.058 2817.5,110.5 Z"/></g>
<g><path style="opacity:1" fill="#fefefe" d="M 3110.5,115.5 C 3128.17,115.5 3145.83,115.5 3163.5,115.5C 3163.5,205.167 3163.5,294.833 3163.5,384.5C 3145.83,384.5 3128.17,384.5 3110.5,384.5C 3110.67,347.498 3110.5,310.498 3110,273.5C 3109.28,274.044 3108.78,274.711 3108.5,275.5C 3091.96,298.089 3069.63,307.589 3041.5,304C 3007.06,297.891 2985.89,277.725 2978,243.5C 2972.3,216.79 2973.63,190.457 2982,164.5C 3001.45,119.856 3034.95,103.023 3082.5,114C 3094.27,118.304 3103.44,125.804 3110,136.5C 3110.5,129.508 3110.67,122.508 3110.5,115.5 Z"/></g>
<g><path style="opacity:1" fill="#fdfefe" d="M 3385.5,110.5 C 3401.92,109.935 3418.25,110.769 3434.5,113C 3439.76,114.141 3444.76,115.975 3449.5,118.5C 3450.67,134.156 3450.83,149.823 3450,165.5C 3428.55,149.934 3405.72,147.434 3381.5,158C 3359.61,172.62 3351.11,193.12 3356,219.5C 3360.06,243.225 3373.89,257.391 3397.5,262C 3416.29,263.803 3433.62,259.637 3449.5,249.5C 3450.83,264.167 3450.83,278.833 3449.5,293.5C 3420.93,305.492 3391.6,307.659 3361.5,300C 3320.7,284.507 3300.36,254.84 3300.5,211C 3301.3,154.049 3329.63,120.549 3385.5,110.5 Z"/></g>
<g><path style="opacity:1" fill="#fefefe" d="M 3560.5,110.5 C 3587.95,107.297 3613.62,112.464 3637.5,126C 3667.12,148.8 3679.62,178.967 3675,216.5C 3671.24,260.219 3648.4,288.386 3606.5,301C 3576.21,308.254 3547.21,304.921 3519.5,291C 3494.61,275.414 3480.78,252.914 3478,223.5C 3473.45,193.022 3480.45,165.689 3499,141.5C 3515.99,124.09 3536.49,113.757 3560.5,110.5 Z"/></g>
<g><path style="opacity:1" fill="#fefefe" d="M 3817.5,110.5 C 3832.28,108.823 3846.28,111.323 3859.5,118C 3869.2,124.705 3876.36,133.539 3881,144.5C 3901.56,114.325 3929.73,103.825 3965.5,113C 3981.67,118.5 3992.5,129.333 3998,145.5C 4000.78,153.602 4002.44,161.935 4003,170.5C 4003.5,213.832 4003.67,257.165 4003.5,300.5C 3985.5,300.5 3967.5,300.5 3949.5,300.5C 3949.67,261.832 3949.5,223.165 3949,184.5C 3946.03,157.285 3931.53,147.452 3905.5,155C 3894.85,162.449 3888.35,172.616 3886,185.5C 3885.5,223.832 3885.33,262.165 3885.5,300.5C 3867.5,300.5 3849.5,300.5 3831.5,300.5C 3831.96,259.137 3831.46,217.803 3830,176.5C 3824.77,156.3 3811.94,148.467 3791.5,153C 3777.92,159.591 3770.09,170.424 3768,185.5C 3767.5,223.832 3767.33,262.165 3767.5,300.5C 3749.5,300.5 3731.5,300.5 3713.5,300.5C 3713.5,238.5 3713.5,176.5 3713.5,114.5C 3731.5,114.5 3749.5,114.5 3767.5,114.5C 3767.33,124.172 3767.5,133.839 3768,143.5C 3779.79,125.361 3796.29,114.361 3817.5,110.5 Z"/></g>
<g><path style="opacity:1" fill="#fafdfe" d="M 49.5,286.5 C 48.5125,231.53 48.1792,176.53 48.5,121.5C 49.8633,117.298 52.5299,114.131 56.5,112C 151.5,111.333 246.5,111.333 341.5,112C 345.612,113.779 348.778,116.612 351,120.5C 351.167,147.833 351.333,175.167 351.5,202.5C 351.145,231.575 351.145,260.575 351.5,289.5C 351.124,291.383 350.124,292.883 348.5,294C 251.167,294.667 153.833,294.667 56.5,294C 53.2832,292.285 50.9498,289.785 49.5,286.5 Z"/></g>
<g><path style="opacity:1" fill="#d4ecfa" d="M 1077.5,115.5 C 1056.66,115.169 1035.99,115.503 1015.5,116.5C 1014.96,116.44 1014.62,116.107 1014.5,115.5C 1035.66,114.172 1056.66,114.172 1077.5,115.5 Z"/></g>
<g><path style="opacity:1" fill="#c1e5f9" d="M 1588.5,143.5 C 1588.44,144.043 1588.11,144.376 1587.5,144.5C 1586.5,134.856 1586.17,125.19 1586.5,115.5C 1568.83,115.5 1551.17,115.5 1533.5,115.5C 1533.5,176.833 1533.5,238.167 1533.5,299.5C 1532.5,238.002 1532.17,176.336 1532.5,114.5C 1550.83,114.5 1569.17,114.5 1587.5,114.5C 1587.17,124.348 1587.51,134.014 1588.5,143.5 Z"/></g>
<g><path style="opacity:1" fill="#fefefe" d="M 409.5,115.5 C 427.167,115.5 444.833,115.5 462.5,115.5C 462.5,179.833 462.5,244.167 462.5,308.5C 459.187,363.984 429.853,389.818 374.5,386C 369.357,384.964 364.357,383.464 359.5,381.5C 358.167,367.167 358.167,352.833 359.5,338.5C 371.11,345.418 383.11,346.252 395.5,341C 402.673,334.824 406.839,326.99 408,317.5C 409.479,250.198 409.979,182.865 409.5,115.5 Z"/></g>
<g><path style="opacity:1" fill="#d4ecfa" d="M 409.5,115.5 C 427.326,114.503 445.326,114.17 463.5,114.5C 463.832,179.335 463.499,244.002 462.5,308.5C 462.5,244.167 462.5,179.833 462.5,115.5C 444.833,115.5 427.167,115.5 409.5,115.5 Z"/></g>
<g><path style="opacity:1" fill="#fefefe" d="M 511.5,114.5 C 529.5,114.5 547.5,114.5 565.5,114.5C 565.5,176.5 565.5,238.5 565.5,300.5C 547.5,300.5 529.5,300.5 511.5,300.5C 511.5,238.5 511.5,176.5 511.5,114.5 Z"/></g>
<g><path style="opacity:1" fill="#fdfefe" d="M 1072.5,299.5 C 1051.99,299.83 1031.66,299.497 1011.5,298.5C 1031.95,268.432 1052.29,238.265 1072.5,208C 1053.37,177.572 1034.37,147.072 1015.5,116.5C 1035.99,115.503 1056.66,115.169 1077.5,115.5C 1089.53,138.226 1101.03,161.226 1112,184.5C 1123.26,160.812 1135.43,137.646 1148.5,115C 1168.17,114.333 1187.83,114.333 1207.5,115C 1186.91,144.844 1166.58,174.844 1146.5,205C 1166.68,236.356 1186.68,267.856 1206.5,299.5C 1185.84,300.666 1165.17,300.833 1144.5,300C 1132.25,277.674 1120.42,255.174 1109,232.5C 1097.33,255.184 1085.16,277.517 1072.5,299.5 Z"/></g>
<g><path style="opacity:1" fill="#fbfdfe" d="M 1232.5,114.5 C 1250.83,114.5 1269.17,114.5 1287.5,114.5C 1287.67,176.168 1287.5,237.834 1287,299.5C 1278.08,300.16 1269.08,300.493 1260,300.5C 1250.92,300.493 1241.92,300.16 1233,299.5C 1232.5,237.834 1232.33,176.168 1232.5,114.5 Z"/></g>
<g><path style="opacity:1" fill="#a1d9f7" d="M 1880.5,114.5 C 1880.83,121.863 1880.5,129.197 1879.5,136.5C 1878.89,136.376 1878.56,136.043 1878.5,135.5C 1879.17,128.5 1879.83,121.5 1880.5,114.5 Z"/></g>
<g><path style="opacity:1" fill="#ceeafa" d="M 3110.5,115.5 C 3128.33,114.503 3146.33,114.17 3164.5,114.5C 3164.5,204.833 3164.5,295.167 3164.5,385.5C 3146.33,385.83 3128.33,385.497 3110.5,384.5C 3128.17,384.5 3145.83,384.5 3163.5,384.5C 3163.5,294.833 3163.5,205.167 3163.5,115.5C 3145.83,115.5 3128.17,115.5 3110.5,115.5 Z"/></g>
<g><path style="opacity:1" fill="#d8f3fc" d="M 314.5,125.5 C 276.506,124.167 238.173,123.5 199.5,123.5C 160.827,123.5 122.494,124.167 84.5,125.5C 83.596,124.791 83.2627,123.791 83.5,122.5C 160.833,122.5 238.167,122.5 315.5,122.5C 315.737,123.791 315.404,124.791 314.5,125.5 Z"/></g>
<g><path style="opacity:1" fill="#4bc4f4" d="M 314.5,125.5 C 314.167,125.5 313.833,125.5 313.5,125.5C 312.081,124.549 310.415,124.216 308.5,124.5C 233.998,124.167 159.665,124.501 85.5,125.5C 85.1667,125.5 84.8333,125.5 84.5,125.5C 122.494,124.167 160.827,123.5 199.5,123.5C 238.173,123.5 276.506,124.167 314.5,125.5 Z"/></g>
<g><path style="opacity:1" fill="#07b0f0" d="M 60.5,123.5 C 62.3635,122.207 64.3635,122.207 66.5,123.5C 95.1667,149.833 123.833,176.167 152.5,202.5C 121.833,228.833 91.1667,255.167 60.5,281.5C 59.1688,228.668 59.1688,176.002 60.5,123.5 Z"/></g>
<g><path style="opacity:1" fill="#00abee" d="M 85.5,125.5 C 159.665,124.501 233.998,124.167 308.5,124.5C 272.506,125.833 236.173,126.5 199.5,126.5C 161.243,126.485 123.243,126.151 85.5,125.5 Z"/></g>
<g><path style="opacity:1" fill="#07b0ef" d="M 339.5,124.5 C 339.832,175.003 339.499,225.336 338.5,275.5C 311.373,252.877 284.373,230.044 257.5,207C 254.781,204.618 252.447,201.951 250.5,199C 277.803,173.367 305.47,148.034 333.5,123C 335.989,122.059 337.989,122.559 339.5,124.5 Z"/></g>
<g><path style="opacity:1" fill="#05b0f0" d="M 308.5,124.5 C 310.415,124.216 312.081,124.549 313.5,125.5C 275.845,160.485 237.845,195.152 199.5,229.5C 161.155,195.152 123.155,160.485 85.5,125.5C 123.243,126.151 161.243,126.485 199.5,126.5C 236.173,126.5 272.506,125.833 308.5,124.5 Z"/></g>
<g><path style="opacity:1" fill="#9fdff9" d="M 48.5,121.5 C 48.1792,176.53 48.5125,231.53 49.5,286.5C 48.7784,286.082 48.2784,285.416 48,284.5C 47.1682,229.998 47.3349,175.665 48.5,121.5 Z"/></g>
<g><path style="opacity:1" fill="#00a7ed" d="M 60.5,123.5 C 61.2389,123.369 61.9056,123.536 62.5,124C 61.6691,174.763 61.1691,225.596 61,276.5C 60.5,225.501 60.3333,174.501 60.5,123.5 Z"/></g>
<g><path style="opacity:1" fill="#7ad5f6" d="M 339.5,124.5 C 340.831,175.002 340.831,225.668 339.5,276.5C 338.893,276.376 338.56,276.043 338.5,275.5C 339.499,225.336 339.832,175.003 339.5,124.5 Z"/></g>
<g><path style="opacity:1" fill="#d3ecfa" d="M 1340.5,125.5 C 1340.17,139.344 1340.5,153.01 1341.5,166.5C 1341.44,167.043 1341.11,167.376 1340.5,167.5C 1339.17,153.339 1339.17,139.339 1340.5,125.5 Z"/></g>
<g><path style="opacity:1" fill="#08b0f0" d="M 2551.5,136.5 C 2569.07,134.028 2579.91,141.361 2584,158.5C 2585.51,176.268 2583.51,193.601 2578,210.5C 2573.75,222.905 2565.58,231.405 2553.5,236C 2535.4,237.26 2524.9,228.76 2522,210.5C 2519.3,190.709 2522.63,172.042 2532,154.5C 2536.79,146.538 2543.29,140.538 2551.5,136.5 Z"/></g>
<g><path style="opacity:1" fill="#07b0f0" d="M 1836.5,151.5 C 1860.48,151.976 1874.98,163.976 1880,187.5C 1881.13,202.275 1880.47,216.942 1878,231.5C 1868.73,257.216 1850.9,266.716 1824.5,260C 1810.85,252.567 1802.68,241.067 1800,225.5C 1798.91,211.732 1799.58,198.065 1802,184.5C 1807.27,166.72 1818.77,155.72 1836.5,151.5 Z"/></g>
<g><path style="opacity:1" fill="#07b0f0" d="M 2839.5,151.5 C 2861.38,151.213 2875.55,161.546 2882,182.5C 2884.29,198.908 2883.95,215.241 2881,231.5C 2870.43,259.202 2851.27,268.035 2823.5,258C 2807.41,245.969 2800.41,229.802 2802.5,209.5C 2800.67,189.479 2807,172.646 2821.5,159C 2827.03,155.06 2833.03,152.56 2839.5,151.5 Z"/></g>
<g><path style="opacity:1" fill="#07b0f0" d="M 3070.5,151.5 C 3091.21,152.703 3104.38,163.37 3110,183.5C 3110.67,197.5 3110.67,211.5 3110,225.5C 3102.43,256.697 3083.27,267.863 3052.5,259C 3041.82,252.315 3034.99,242.815 3032,230.5C 3026.65,208.699 3029.32,188.032 3040,168.5C 3047.7,158.239 3057.86,152.572 3070.5,151.5 Z"/></g>
<g><path style="opacity:1" fill="#08b0f0" d="M 3569.5,151.5 C 3597.1,149.296 3613.6,161.629 3619,188.5C 3622.49,208.736 3619.82,228.07 3611,246.5C 3604.41,255.415 3595.57,260.582 3584.5,262C 3554.13,265.292 3536.96,251.792 3533,221.5C 3532.33,211.833 3532.33,202.167 3533,192.5C 3536.37,170.649 3548.54,156.982 3569.5,151.5 Z"/></g>
<g><path style="opacity:1" fill="#09b0f0" d="M 2270.5,185.5 C 2292.18,184.407 2306.35,194.074 2313,214.5C 2317,249.497 2301.5,265.997 2266.5,264C 2251.59,260.091 2242.42,250.591 2239,235.5C 2234.88,213.917 2242.38,198.084 2261.5,188C 2264.74,187.594 2267.74,186.761 2270.5,185.5 Z"/></g>
<g><path style="opacity:1" fill="#05b0ef" d="M 327.5,281.5 C 326.432,282.434 325.099,282.768 323.5,282.5C 242.764,281.832 161.931,281.165 81,280.5C 80.3292,281.252 79.4959,281.586 78.5,281.5C 105.828,257.511 133.494,233.844 161.5,210.5C 173.544,220.532 185.211,231.032 196.5,242C 198.5,242.667 200.5,242.667 202.5,242C 215.345,230.487 228.178,218.987 241,207.5C 270.006,232.068 298.839,256.735 327.5,281.5 Z"/></g>
<g><path style="opacity:1" fill="#0cb0f0" d="M 708.5,212.5 C 710.167,212.5 711.833,212.5 713.5,212.5C 713.5,218.167 713.5,223.833 713.5,229.5C 710.94,251.894 698.44,263.894 676,265.5C 656.618,264.115 648.285,253.782 651,234.5C 655.28,224.556 662.78,218.723 673.5,217C 685.121,215.089 696.788,213.589 708.5,212.5 Z"/></g>
<g><path style="opacity:1" fill="#a2d9f7" d="M 708.5,212.5 C 710.265,211.539 712.265,211.205 714.5,211.5C 714.823,217.69 714.49,223.69 713.5,229.5C 713.5,223.833 713.5,218.167 713.5,212.5C 711.833,212.5 710.167,212.5 708.5,212.5 Z"/></g>
<g><path style="opacity:1" fill="#0fb0f0" d="M 1431.5,211.5 C 1432.83,211.5 1434.17,211.5 1435.5,211.5C 1438.42,229.71 1433.42,245.21 1420.5,258C 1406.67,267.524 1392.67,267.857 1378.5,259C 1368.99,247.075 1369.32,235.408 1379.5,224C 1383.22,221.473 1387.22,219.473 1391.5,218C 1404.99,215.986 1418.32,213.819 1431.5,211.5 Z"/></g>
<g><path style="opacity:1" fill="#fdfefe" d="M 3230.5,246.5 C 3244.31,244.826 3255.81,249.159 3265,259.5C 3274.77,281.549 3268.27,296.382 3245.5,304C 3226.56,307.117 3213.39,299.951 3206,282.5C 3203.42,269.494 3207.59,259.327 3218.5,252C 3222.48,249.854 3226.48,248.02 3230.5,246.5 Z"/></g>
<g><path style="opacity:1" fill="#c2e5f9" d="M 712.5,273.5 C 712.56,272.957 712.893,272.624 713.5,272.5C 714.498,281.475 714.832,290.475 714.5,299.5C 731.5,299.5 748.5,299.5 765.5,299.5C 748.341,300.497 731.008,300.83 713.5,300.5C 713.827,291.318 713.493,282.318 712.5,273.5 Z"/></g>
<g><path style="opacity:1" fill="#a6dbf8" d="M 1878.5,273.5 C 1878.56,272.957 1878.89,272.624 1879.5,272.5C 1880.82,279.322 1880.82,285.989 1879.5,292.5C 1879.82,285.978 1879.49,279.645 1878.5,273.5 Z"/></g>
<g><path style="opacity:1" fill="#67c6f4" d="M 3110.5,384.5 C 3109.83,348.167 3109.17,311.833 3108.5,275.5C 3108.78,274.711 3109.28,274.044 3110,273.5C 3110.5,310.498 3110.67,347.498 3110.5,384.5 Z"/></g>
<g><path style="opacity:1" fill="#00a7ed" d="M 323.5,282.5 C 241.665,282.833 159.998,282.499 78.5,281.5C 79.4959,281.586 80.3292,281.252 81,280.5C 161.931,281.165 242.764,281.832 323.5,282.5 Z"/></g>
<g><path style="opacity:1" fill="#4bc4f3" d="M 78.5,281.5 C 159.998,282.499 241.665,282.833 323.5,282.5C 325.099,282.768 326.432,282.434 327.5,281.5C 327.833,281.5 328.167,281.5 328.5,281.5C 286.839,282.833 244.839,283.5 202.5,283.5C 160.332,283.5 118.332,283.167 76.5,282.5C 76.8417,281.662 77.5084,281.328 78.5,281.5 Z"/></g>
<g><path style="opacity:1" fill="#d6f3fc" d="M 328.5,281.5 C 329.404,282.209 329.737,283.209 329.5,284.5C 244.831,284.833 160.164,284.5 75.5,283.5C 75.6236,282.893 75.9569,282.56 76.5,282.5C 118.332,283.167 160.332,283.5 202.5,283.5C 244.839,283.5 286.839,282.833 328.5,281.5 Z"/></g>
<g><path style="opacity:1" fill="#a3daf8" d="M 1011.5,298.5 C 1031.66,299.497 1051.99,299.83 1072.5,299.5C 1052,300.828 1031.33,300.828 1010.5,299.5C 1010.62,298.893 1010.96,298.56 1011.5,298.5 Z"/></g>
<g><path style="opacity:1" fill="#a3daf7" d="M 2010.5,297.5 C 2029.14,299.487 2048.14,300.154 2067.5,299.5C 2048.34,300.497 2029.01,300.83 2009.5,300.5C 2009.26,299.209 2009.6,298.209 2010.5,297.5 Z"/></g>
<g><path style="opacity:0.063" fill="#a2dff8" d="M 4059.5,341.5 C 4059.5,342.5 4059.5,343.5 4059.5,344.5C 4058.47,347.95 4057.14,351.283 4055.5,354.5C 4055.5,353.833 4055.5,353.167 4055.5,352.5C 4056.24,349.703 4056.91,346.87 4057.5,344C 4057.68,342.624 4058.35,341.791 4059.5,341.5 Z"/></g>
<g><path style="opacity:0.298" fill="#8ad9f8" d="M 0.5,349.5 C 1.49722,349.47 2.16389,349.97 2.5,351C 3.94439,355.165 5.27773,359.332 6.5,363.5C 3.93334,359.151 1.93334,354.485 0.5,349.5 Z"/></g>
<g><path style="opacity:0.075" fill="#b4e5f9" d="M 4053.5,359.5 C 4053.54,362.089 4052.54,364.089 4050.5,365.5C 4050.99,363.181 4051.99,361.181 4053.5,359.5 Z"/></g>
<g><path style="opacity:0.012" fill="#9cdff8" d="M 8.5,366.5 C 9.90632,366.973 10.573,367.973 10.5,369.5C 9.09368,369.027 8.42702,368.027 8.5,366.5 Z"/></g>
<g><path style="opacity:0.008" fill="#69cbf5" d="M 19.5,380.5 C 26.6253,385.938 34.292,390.605 42.5,394.5C 43.2975,394.957 43.6309,395.624 43.5,396.5C 34.1374,393.125 26.1374,387.791 19.5,380.5 Z"/></g>
<g><path style="opacity:0.3" fill="#69cdf5" d="M 4027.5,389.5 C 4024.53,391.988 4021.2,393.988 4017.5,395.5C 4020.1,392.524 4023.43,390.524 4027.5,389.5 Z"/></g>
</svg>
